<svg style="position: absolute; width: 0; height: 0;" width="0" height="0" version="1.1" xmlns="http://www.w3.org/2000/svg" xmlns:xlink="http://www.w3.org/1999/xlink">
<defs>
<symbol id="angular-icon" viewBox="0 0 964 1024">
  <title>angular-icon</title>
  <path d="M0.375 171.378l473.632-168.753 486.382 165.753-78.751 626.635-407.631 225.753-401.256-222.753-72.376-626.635z" fill="#E23237"></path>
  <path d="M960.39 168.378l-486.382-165.753v1018.141l407.631-225.378 78.751-627.010z" fill="#B52E31"></path>
  <path d="M474.757 121.502v0l-295.13 656.635 110.252-1.875 59.251-148.127h264.754l64.876 150.002 105.377 1.875-309.38-658.51zM475.507 331.88l99.752 208.503h-187.503l87.751-208.503z" fill="#FFFFFF"></path>
</symbol>
<symbol id="bootstrap" viewBox="0 0 1024 1024">
  <title>bootstrap</title>
  <path d="M0 891.965c0 72.929 59.114 132.035 132.035 132.035h759.93c72.929 0 132.035-59.114 132.035-132.035v-759.93c0-72.929-59.114-132.035-132.035-132.035h-759.93c-72.929 0-132.035 59.114-132.035 132.035v759.93z" fill="#563d7c"></path>
  <path d="M424.63 452.952v-145.014h127.647c12.157 0 23.879 1.013 35.168 3.039s21.274 5.644 29.958 10.854c8.684 5.21 15.63 12.446 20.84 21.709s7.815 21.13 7.815 35.602c0 26.051-7.815 44.865-23.445 56.443s-35.602 17.367-59.916 17.367h-138.067zM288.3 202v620h300.448c27.787 0 54.85-3.473 81.19-10.42s49.785-17.656 70.336-32.129c20.551-14.473 36.905-33.142 49.062-56.008s18.235-49.93 18.235-81.19c0-38.786-9.407-71.928-28.221-99.426s-47.325-46.746-85.532-57.745c27.787-13.315 48.772-30.392 62.955-51.232s21.275-46.891 21.275-78.151c0-28.945-4.776-53.259-14.328-72.941s-23.011-35.457-40.378-47.325c-17.367-11.867-38.207-20.406-62.521-25.616s-51.232-7.815-80.756-7.815h-291.765zM424.63 716.062v-170.196h148.487c29.524 0 53.259 6.802 71.204 20.406s26.919 36.326 26.919 68.165c0 16.209-2.75 29.524-8.249 39.944s-12.88 18.669-22.143 24.748c-9.262 6.078-19.972 10.42-32.129 13.025s-24.893 3.908-38.207 3.908h-145.882z" fill="#fff"></path>
</symbol>
<symbol id="css-3" viewBox="0 0 726 1024">
  <title>css-3</title>
  <path d="M362.637 1021.413l-295.519-82.038-65.855-738.643h723.635l-65.925 738.527-296.335 82.154z" fill="#264de4"></path>
  <path d="M602.534 892.232l56.337-631.105h-295.791v697.491l239.453-66.386z" fill="#2965f1"></path>
  <path d="M152.234 535.079l8.119 90.591h202.727v-90.591h-210.846z" fill="#ebebeb"></path>
  <path d="M135.92 351.719l8.235 90.593h218.925v-90.593h-227.161z" fill="#ebebeb"></path>
  <path d="M363.080 770.355l-0.397 0.106-100.892-27.243-6.45-72.251h-90.94l12.692 142.242 185.57 51.516 0.417-0.116v-94.253z" fill="#ebebeb"></path>
  <path d="M171.565 0h109.722v45.884h-63.838v45.884h63.838v45.884h-109.722v-137.651z" fill="#000"></path>
  <path d="M303.232 0h109.722v39.899h-63.838v7.98h63.838v91.768h-109.722v-41.894h63.838v-7.98h-63.838v-89.773z" fill="#000"></path>
  <path d="M434.898 0h109.722v39.899h-63.838v7.98h63.838v91.768h-109.722v-41.894h63.838v-7.98h-63.838v-89.773z" fill="#000"></path>
  <path d="M573.346 535.079l16.355-183.36h-226.933v90.593h127.653l-8.243 92.767h-119.41v90.591h111.553l-10.515 117.49-101.038 27.271v94.249l185.718-51.472 1.363-15.305 21.288-238.498 2.21-24.326z" fill="#fff"></path>
</symbol>
<symbol id="git-icon" viewBox="0 0 1024 1024">
  <title>git-icon</title>
  <path d="M1004.689 466.374l-447.094-447.060c-25.729-25.752-67.492-25.752-93.255 0l-92.839 92.839 117.77 117.77c27.37-9.247 58.75-3.045 80.57 18.775 21.92 21.954 28.077 53.605 18.606 81.064l113.501 113.501c27.46-9.46 59.144-3.337 81.075 18.628 30.65 30.639 30.65 80.3 0 110.962-30.662 30.662-80.323 30.662-110.995 0-23.055-23.078-28.752-56.941-17.078-85.345l-105.85-105.85-0.011 278.55c7.472 3.708 14.527 8.64 20.752 14.842 30.65 30.639 30.65 80.3 0 110.984-30.662 30.65-80.345 30.65-110.962 0-30.65-30.684-30.65-80.345 0-110.984 7.573-7.561 16.336-13.28 25.684-17.123v-281.146c-9.348-3.82-18.1-9.505-25.684-17.123-23.224-23.19-28.808-57.267-16.909-85.783l-116.085-116.108-306.56 306.538c-25.763 25.774-25.763 67.537 0 93.288l447.094 447.071c25.741 25.752 67.492 25.752 93.266 0l445.004-444.993c25.752-25.763 25.752-67.548 0-93.3z" fill="#DE4C36"></path>
</symbol>
<symbol id="gulp" viewBox="0 0 463 1024">
  <title>gulp</title>
  <path d="M356.916 992.79l9.818-163.605 27.111-46.279c0 0-61.704 25.242-165.007 25.242-103.305 0-164.073-24.775-164.073-24.775l30.383 50.484 10.748 158.933c0 17.039 56.192 30.85 125.511 30.85 69.315 0 125.509-13.811 125.509-30.85z" fill="#d34a47"></path>
  <path d="M325.945 228.779l20.608-81.459 114.125-120.087-30.080-25.62-120.825 127.922-23.928 97.322c-17.337-0.586-35.431-0.899-54.046-0.899-127.251 0-230.409 14.502-230.409 32.388 0 17.887 103.158 32.388 230.409 32.388 127.249 0 230.405-14.501 230.405-32.388 0-13.171-55.947-24.507-136.261-29.568z" fill="#d34a47"></path>
  <path d="M313.957 274.398c0 0-4.463 1-17.593 1.057-13.133 0.054-22.457-0.085-26.172-3.468-0.999-0.908-1.545-2.712-1.54-3.933 0.011-2.325 1.661-3.694 3.763-4.552l1.988 3.119c-0.865 0.299-1.359 0.651-1.361 1.028-0.007 1.766 13.428 2.974 23.704 2.844 10.278-0.127 22.696-0.973 22.707-2.714 0-0.526-0.939-1.022-2.573-1.413l1.979-3.097c2.663 0.827 4.988 2.424 4.983 5.189-0.025 4.7-6.007 5.415-9.887 5.941z" fill="#fff"></path>
  <path d="M460.454 27.471c2.869-3.314-1.485-11.792-9.726-18.933-8.244-7.137-17.254-10.238-20.129-6.924-2.871 3.314 1.485 11.792 9.73 18.93 8.241 7.139 17.254 10.244 20.125 6.927z" fill="#d34a47"></path>
  <path d="M351.427 593.169c-2.705-26.023 56.921-63.712 41.619-64.919-32.942 1.883-49.337 38.604-65.911 77.064-6.073 14.095-26.856 74.2-40.486 66.801-13.627-7.396 17.667-56.821 26.438-86.173-10.121 7.421-47.236 36.258-56.801 9.252-15.378 13.061-48.238 20.136-44.531-14.171-8.181 14.492-26.543 34.724-48.582 26.316-28.943-11.038 16.771-103.236 28.138-98.584 11.369 4.65-2.294 25.652-5.873 33.808-7.87 17.949-16.961 40.513-10.888 45.132 10.405 7.913 38.718-29.937 39.348-30.769 5.295-6.996 20.382-52.767 32.542-47.511s-30.329 65.688-14.443 77.681c3.204 2.421 16.313-1.493 24.288-10.121 5.16-5.581 3.385-17.944 20.585-58.961 17.2-41.016 32.529-92.097 44.325-88.205 11.796 3.89 2.073 30.107-2.158 39.88-19.858 45.87-54.196 121.652-38.002 115.915 16.194-5.735 24.627-6.072 40.484-24.628s15.127-49.123 25.696-48.474c10.573 0.651 8.798 10.452 6.234 17.915 10.403-11.904 49.311-36.976 58.705-12.145 11.127 29.397-55.667 71.861-39.013 69.695 16.237-2.111 42.543-18.772 53.774-33.92l30.915-277.938c0 0-31.109 25.745-229.023 25.745-197.916 0-225.806-25.209-225.806-25.209l26.32 253.691c13.971-39.706 47.146-120.020 99.438-117.324 23.787 1.227 55.542 47.030 28.341 48.582-11.514 0.655-12.682-22.863-26.316-26.316-9.838-2.493-23.536 5.505-32.388 14.171-17.654 17.278-55.623 85.446-50.607 119.432 6.392 43.328 59.79-15.056 68.825-32.39 6.363-12.21 10.662-48.387 24.578-44.591 13.918 3.796-1.214 41.13-11.302 74.139-11.333 37.065-17.29 76.163-31.494 71.666-14.206-4.494 8.934-52.343 8.096-60.727-13.352 12.319-37.95 43.506-69.419 28.070l16.346 157.54c0 0 43.444 34.326 174.315 34.326s175.924-33.79 175.924-33.79l20.297-182.469c-16.607 16.171-69.163 44.886-72.529 12.518z" fill="#d34a47"></path>
</symbol>
<symbol id="html-5" viewBox="0 0 726 1024">
  <title>html-5</title>
  <path d="M724.898 200.732l-65.925 738.527-296.335 82.154-295.519-82.038-65.855-738.643h723.635z" fill="#e44d26"></path>
  <path d="M363.080 958.618l239.453-66.386 56.337-631.105h-295.791v697.491z" fill="#f16529"></path>
  <path d="M234.925 442.312h128.155v-90.593h-227.161l2.169 24.304 22.266 249.646h202.727v-90.591h-119.876l-8.279-92.767z" fill="#ebebeb"></path>
  <path d="M255.341 670.966h-90.94l12.692 142.242 185.57 51.516 0.417-0.116v-94.253l-0.397 0.106-100.892-27.243-6.45-72.251z" fill="#ebebeb"></path>
  <path d="M68.59 0h46.037v45.485h42.113v-45.485h46.039v137.739h-46.037v-46.123h-42.113v46.123h-46.037v-137.739h-0.002z" fill="#000"></path>
  <path d="M263.321 45.676h-40.529v-45.676h127.118v45.676h-40.547v92.063h-46.039v-92.063h-0.002z" fill="#000"></path>
  <path d="M370.085 0h48.004l29.529 48.397 29.499-48.397h48.022v137.739h-45.848v-68.271l-31.674 48.974h-0.792l-31.696-48.974v68.271h-45.046v-137.739z" fill="#000"></path>
  <path d="M548.052 0h46.051v92.21h64.742v45.529h-110.793v-137.739z" fill="#000"></path>
  <path d="M362.767 625.669h111.553l-10.515 117.49-101.038 27.271v94.249l185.718-51.472 1.363-15.305 21.288-238.498 2.21-24.326h-210.579v90.591z" fill="#fff"></path>
  <path d="M362.767 442.090v0.221h218.822l1.817-20.362 4.128-45.926 2.167-24.304h-226.933v90.371z" fill="#fff"></path>
</symbol>
<symbol id="javascript" viewBox="0 0 1024 1024">
  <title>javascript</title>
  <path d="M0 0h1024v1024h-1024v-1024z" fill="#f7df1e"></path>
  <path d="M269.247 855.729l78.364-47.424c15.118 26.804 28.87 49.484 61.858 49.484 31.62 0 51.556-12.369 51.556-60.481v-327.192h96.23v328.553c0 99.669-58.423 145.036-143.661 145.036-76.98 0-121.666-39.869-144.348-87.983z" fill="#000"></path>
  <path d="M609.524 845.418l78.354-45.366c20.626 33.685 47.434 58.428 94.86 58.428 39.873 0 65.299-19.935 65.299-47.431 0-32.994-26.119-44.681-70.111-63.92l-24.051-10.318c-69.429-29.551-115.484-66.669-115.484-145.031 0-72.174 54.989-127.166 140.914-127.166 61.177 0 105.168 21.311 136.784 76.989l-74.924 48.113c-16.498-29.555-34.364-41.238-61.858-41.238-28.183 0-46.056 17.871-46.056 41.238 0 28.87 17.873 40.559 59.111 58.431l24.056 10.31c81.798 35.058 127.854 70.797 127.854 151.217 0 86.614-68.049 134.038-159.468 134.038-89.358 0-147.098-42.615-175.276-98.294z" fill="#000"></path>
</symbol>
<symbol id="jquery" viewBox="0 0 4520 1024">
  <title>jquery</title>
  <path class="path1 fill-color2" d="M4323.030 76.324l189.092 1.039c0 0-351.56 476.372-380.263 515.197-9.325 12.572-23.49 26.131-30.668 42.937-18.157 42.253-36.799 134.934-36.799 134.934l-173.014 0.857c0 0 26.919-96.603 25.811-148.060-0.978-44.955-23.923-89.849-36.799-134.934-13.005-45.63-30.668-134.934-30.668-134.934h177.871l24.529 98.135 270.906-375.172z" fill="#1a1918"></path>
  <path class="path2 fill-color2" d="M3964.976 176.789c34.894 21.040 56.306 137.081 56.306 137.081s-182.59 2.693-281.955 2.693h-85.866l-104.265 453.869h-159.463c0 0 99.235-493.239 122.665-582.663 7.602-28.945 52.011-23.984 127.020-23.984h119.781c77.346 0 167.749-9.871 205.777 13.005z" fill="#1a1918"></path>
  <path class="path3 fill-color2" d="M3222.598 397.831c0 0 4.97-29.136-16.867-62.869-18.642-28.763-35.872-35.448-84.94-36.98-138.553-4.355-135.86 98.317-135.86 98.317l237.666 1.533zM3372.866 280.258c20.304 73.233-18.399 245.329-18.399 245.329s-202.097-3.377-312.796 0c-34.417 1.048-75.623-3.74-85.866 12.269-14.416 22.443 5.264 56.981 21.949 71.571 19.205 16.806 56.609 18.711 70.047 20.425 89.849 11.412 277.902 2.944 277.902 2.944l-32.573 144.25c0 0-265.746 13.317-398.662-18.399-26.244-6.251-50.843-18.884-67.467-36.799-4.537-4.901-8.468-11.585-12.763-17.352-3.429-4.606-13.421-19.75-17.906-31.716-30.357-80.896 3.559-235.883 36.799-318.926 3.862-9.628 8.71-21.828 13.81-32.201 6.373-12.936 11.767-27.534 16.858-35.266 3.429-5.334 7.671-8.771 11.23-13.802 4.104-5.948 8.884-11.715 13.308-16.858 12.26-14.235 26.183-24.296 42.929-36.799 55.38-41.465 155.601-73.666 275.998-61.337 45.327 4.658 113.781 20.85 147.203 67.467 8.953 12.451 13.369 37.162 18.399 55.198v0 0z" fill="#1a1918"></path>
  <path class="path4 fill-color2" d="M2641.467 163.23l154.623-0.918c0 0-86.169 408.784-130.085 608.119h-177.871c-124.318 0-235.026 15.395-282.128-73.606-45.691-86.412-2.087-228.523 18.399-325.065 14.477-68.324 44.963-207.977 44.963-207.977l160.199-1.472c0 0-45.267 217.423-64.099 325.983-6.745 38.885-20.659 75.502-6.13 104.265 13.802 27.361 33.119 29.318 91.996 30.668 18.65 0.433 79.736 0 79.736 0l110.396-459.999z" fill="#1a1918"></path>
  <path class="path5 fill-color2" d="M1917.74 457.626c16.191-57.527 39.803-119.903 36.799-171.732-3.247-55.44-49.734-105.919-79.727-116.526-90.343-31.898-174.919 12.693-208.531 49.059-43.492 47.111-58.211 102.127-73.606 177.871-11.464 56.237-20.85 115.608 0 159.463 36.92 77.528 152.043 60.601 275.998 61.337 18.399-49.31 33.612-104.698 49.068-159.472v0 0zM2132.409 230.696c17.663 128.431-50.107 270.179-96.784 393.45 47.596 4.295 89.304-0.667 92.308 2.883 3.126 4.606-31.898 147.142-44.106 147.506-37.777 0.987-162.952 2.026-215.154 2.026-170.321 0-329.663 11.1-410.923-73.597-32.997-34.409-55.813-93.416-61.337-134.934-9.204-69.311 2.329-145.61 18.399-208.531 14.538-56.8 33.179-110.404 61.337-159.472 71.571-124.933 196.080-217.665 404.792-196.262 40.478 4.173 98.62 21.897 134.934 42.929 2.511 1.481 11.291 8.468 13.308 9.697 49.068 31.222 93.78 105.737 103.226 174.304v0 0z" fill="#1a1918"></path>
  <path class="path6 fill-color2" d="M1378.81 163.966c-10.304 46.92-20.607 100.101-31.465 146.467h-171.732c13.308-51.397 23.49-102.49 36.799-147.203 54.955 0 106.049 0.736 166.399 0.736z" fill="#1a1918"></path>
  <path class="path7 fill-color2" d="M1169.483 353.361h165.593c-21.646 119.851-64.514 313.168-98.127 447.73-21.040 84.212-35.084 145.67-92.005 190.131-5.091 3.992-8.026 2.095-12.26 6.139-10.494 10.001-59.008 21.594-85.866 24.529-43.673 4.728-93.044 0.615-146.709-0.485 14.044-51.336 29.932-112.976 42.444-158.978 130.821 15.828 134.137-107.824 159.463-226.93 14.659-68.818 59.068-254.533 67.467-282.136z" fill="#1a1918"></path>
  <path class="path8 fill-color4" d="M783.081 666.166l-3.55 9.195c-60.479 117.755-167.628 190.010-320.467 193.197-71.45 1.472-139.531-16.858-184.001-36.799-95.979-43.119-176.702-123.089-220.791-208.531-63.242-122.483-74.645-292.864 56.852-420.127 2.026 0-15.949 27.595-13.923 27.595l-3.619 11.776c-94.758 296.665 197.179 550.895 480.97 521.82 68.203-6.987 155.177-44.34 208.531-98.127z" fill="#21609b"></path>
  <path class="path9 fill-color4" d="M611.349 543.492c71.398 0.494 145.973-32.876 190.131-79.727-38.634 98.075-150.502 161.117-300.527 141.064-125.609-16.806-245.269-143.211-257.598-269.867-9.013-92.178 23.118-147.194 76.056-213.925-18.399 34.902-25.274 61.822-26.988 78.991-20.114 199.396 159.281 342.425 318.926 343.464z" fill="#21609b"></path>
  <path class="path10 fill-color4" d="M794.311 295.834c-11.1 25.456-75.008 73.536-103.226 79.545-111.746 23.802-183.317-29.188-220.8-89.485-5.576-9.013-15.88-33.604-17.724-39.864-14.538-49.431-7.853-124.197 35.517-162.901-13.066 36.799-14.971 79.545-8.096 107.33 4.165 16.806 16.858 46.132 29.56 64.584 23.118 33.612 37.777 41.777 67.467 59.622 13.369 8.035 27.716 14.477 33.915 16.252 28.149 8.278 87.58 30.114 183.387-35.084z" fill="#21609b"></path>
</symbol>
<symbol id="sass" viewBox="0 0 1365 1024">
  <title>sass</title>
  <path class="path1" d="M1174.833 589.406c-47.501 0.249-88.784 11.689-123.353 28.6-12.683-25.118-25.367-47.501-27.605-63.915-2.487-19.149-5.471-30.838-2.487-53.718s16.414-55.459 16.165-57.946c-0.249-2.487-2.984-14.176-30.341-14.424s-50.982 5.223-53.718 12.435c-2.736 7.212-7.958 23.626-11.44 40.537-4.725 24.869-54.713 113.653-83.313 160.159-9.202-18.155-17.16-34.071-18.901-46.755-2.487-19.149-5.471-30.838-2.487-53.718s16.414-55.459 16.165-57.946c-0.249-2.487-2.984-14.176-30.341-14.424s-50.982 5.223-53.718 12.435c-2.736 7.212-5.72 24.123-11.44 40.537s-72.121 164.636-89.53 202.935c-8.953 19.647-16.663 35.315-22.134 46.008v0c0 0-0.249 0.746-0.995 1.99-4.725 9.202-7.461 14.176-7.461 14.176s0 0 0 0.249c-3.73 6.715-7.71 12.932-9.699 12.932-1.492 0-4.228-17.906 0.497-42.278 9.948-51.48 33.574-131.559 33.325-134.295 0-1.492 4.477-15.419-15.419-22.631-19.398-7.212-26.362 4.725-28.102 4.725s-2.984 4.228-2.984 4.228c0 0 21.636-90.027-41.283-90.027-39.294 0-93.509 43.024-120.368 81.821-16.911 9.202-52.972 28.849-91.52 49.988-14.673 8.207-29.843 16.414-44.019 24.123-0.995-0.995-1.99-2.238-2.984-3.233-76.101-81.323-216.862-138.772-210.893-247.949 2.238-39.791 15.916-144.243 270.331-271.077 209.401-103.208 376.026-74.608 404.875-11.191 41.283 90.525-89.281 258.642-305.646 283.014-82.567 9.202-125.839-22.631-136.782-34.569-11.44-12.435-13.181-13.181-17.409-10.694-6.963 3.73-2.487 14.922 0 21.388 6.466 16.911 33.076 46.755 78.090 61.428 39.791 12.932 136.533 20.144 253.668-25.118 131.062-50.734 233.524-191.744 203.432-309.873-30.092-119.871-229.048-159.413-417.31-92.514-111.913 39.791-233.276 102.462-320.567 184.034-103.706 96.991-120.119 181.298-113.405 216.613 24.123 125.342 196.966 206.914 266.103 267.347-3.482 1.99-6.715 3.73-9.45 5.223-34.569 17.16-166.377 86.048-199.204 158.916-37.304 82.567 5.969 141.756 34.569 149.714 88.784 24.621 180.055-19.647 229.048-92.763s43.024-168.118 20.393-211.639c-0.249-0.497-0.497-0.995-0.995-1.492 8.953-5.223 18.155-10.694 27.108-15.916 17.657-10.445 35.066-20.144 49.988-28.102-8.456 23.129-14.673 50.734-17.657 90.525-3.73 46.755 15.419 107.436 40.537 131.311 11.191 10.445 24.372 10.694 32.828 10.694 29.346 0 42.527-24.372 57.2-53.221 17.906-35.315 34.071-76.349 34.071-76.349s-20.144 110.918 34.569 110.918c19.896 0 40.040-25.864 48.993-39.045v0.249c0 0 0.497-0.746 1.492-2.487 1.99-3.233 3.233-5.223 3.233-5.223v-0.497c7.958-13.927 25.864-45.511 52.475-97.986 34.32-67.645 67.396-152.201 67.396-152.201s2.984 20.642 13.181 54.962c5.969 20.144 18.403 42.278 28.351 63.666-7.958 11.191-12.932 17.409-12.932 17.409s0 0 0.249 0.249c-6.466 8.456-13.43 17.657-21.139 26.61-27.108 32.33-59.438 69.386-63.915 80.080-5.223 12.683-3.979 21.885 5.969 29.346 7.212 5.471 20.144 6.217 33.325 5.471 24.372-1.741 41.532-7.71 49.988-11.44 13.181-4.725 28.6-11.937 43.024-22.631 26.61-19.647 42.775-47.749 41.283-84.805-0.746-20.393-7.461-40.786-15.668-59.935 2.487-3.482 4.725-6.963 7.212-10.445 42.029-61.428 74.608-128.824 74.608-128.824s2.984 20.642 13.181 54.962c4.974 17.409 15.17 36.309 24.123 54.713-39.542 32.082-63.915 69.386-72.619 93.758-15.668 45.262-3.482 65.655 19.647 70.381 10.445 2.238 25.367-2.736 36.309-7.461 13.927-4.477 30.341-12.186 46.008-23.626 26.61-19.647 52.226-47.003 50.734-84.059-0.746-16.911-5.223-33.574-11.44-49.739 33.574-13.927 76.847-21.636 132.057-15.17 118.379 13.927 141.756 87.789 137.279 118.876s-29.346 47.998-37.553 53.221c-8.207 5.223-10.943 6.963-10.196 10.694 0.995 5.471 4.974 5.223 11.937 4.228 9.699-1.741 62.174-25.118 64.412-82.318 3.73-73.116-65.904-152.947-189.008-152.201v0zM261.627 897.29c-39.294 42.775-94.007 58.941-117.633 45.262-25.367-14.673-15.419-77.841 32.828-123.104 29.346-27.605 67.148-53.221 92.266-68.888 5.72-3.482 14.176-8.456 24.372-14.673 1.741-0.995 2.736-1.492 2.736-1.492v0c1.99-1.243 3.979-2.487 5.969-3.73 17.657 64.661 0.746 121.612-40.537 166.625v0zM547.625 702.811c-13.678 33.325-42.278 118.627-59.687 113.902-14.922-3.979-24.123-68.64-2.984-132.554 10.694-32.082 33.325-70.381 46.506-85.302 21.388-23.875 45.014-31.833 50.734-22.134 7.212 12.683-26.113 105.198-34.569 126.088v0zM783.637 815.718c-5.72 2.984-11.191 4.974-13.678 3.482-1.741-0.995 2.487-4.974 2.487-4.974s29.595-31.833 41.283-46.257c6.715-8.456 14.673-18.403 23.129-29.595v3.233c0 38.050-36.807 63.666-53.221 74.111v0zM965.681 774.186c-4.228-2.984-3.482-12.932 10.694-44.019 5.471-12.186 18.403-32.579 40.537-52.226 2.487 7.958 4.228 15.668 3.979 22.88-0.249 47.998-34.569 65.904-55.21 73.365v0z" fill="#CD6799"></path>
</symbol>
</defs>
</svg>
